<svg width="908" height="258" viewBox="0 0 908 258" xmlns="http://www.w3.org/2000/svg">
  <style>
      @import url('https://fonts.googleapis.com/css2?family=Space+Grotesk:wght@500;700&amp;family=JetBrains+Mono:wght@400;600&amp;display=swap');
      .title { font-family: 'Space Grotesk', sans-serif; fill: #fafafa; font-size: 24px; font-weight: 700; letter-spacing: 0.05em; }
      .label { font-family: 'JetBrains Mono', sans-serif; fill: #666666; font-size: 13px; }
      .value { font-family: 'JetBrains Mono', sans-serif; fill: #fafafa; font-size: 13px; font-weight: 600; }
      .bg { fill: #141414; stroke: #333333; stroke-width: 2; }
      .shadow { fill: #000000; }
      .chart-fill { fill: #ff0000; opacity: 0.15; stroke: #ff0000; stroke-width: 2; }
      .axis { stroke: #333333; stroke-width: 1; stroke-dasharray: 2 2; }
      .axis-label { font-family: 'JetBrains Mono', sans-serif; fill: #666666; font-size: 12px; }
      .icon { fill: #ff0000; }
  </style>
  <rect x="8" y="8" width="900" height="250" class="shadow" />
  <rect width="900" height="250" class="bg" />
  
  <text x="30" y="50" class="title">BIJJUDAMA (Nitansh Shankar)</text>
  <line x1="30" y1="60" x2="300" y2="60" stroke="#ff0000" stroke-width="2" />
  
  <g transform="translate(30, 95)"><g class="icon" transform="scale(0.9)"><path fill-rule="evenodd" d="M8 1.5a6.5 6.5 0 100 13 6.5 6.5 0 000-13zM0 8a8 8 0 1116 0A8 8 0 010 8zm11.646-2.854a.5.5 0 00-.707 0L8 8.086 5.854 5.94a.5.5 0 00-.708 0l-2 2a.5.5 0 10.708.708L5.5 6.992l2.146 2.147a.5.5 0 00.708 0l3.5-3.5a.5.5 0 000-.707z"></path></g></g>
  <text x="55" y="108" class="label">Contributions: <tspan class="value">774</tspan></text>

  <g transform="translate(30, 130)"><g class="icon" transform="scale(0.9)"><path fill-rule="evenodd" d="M2 2.5A2.5 2.5 0 014.5 0h8.75a.75.75 0 01.75.75v12.5a.75.75 0 01-.75.75h-2.5a.75.75 0 110-1.5h1.75v-2h-8a1 1 0 00-.714 1.7.75.75 0 01-1.072 1.05A2.495 2.495 0 012 11.5v-9zm10.5-1V9h-8c-.356 0-.694.074-1 .208V2.5a1 1 0 011-1h8zM5 12.25v3.25a.25.25 0 00.4.2l1.45-1.087a.25.25 0 01.3 0L8.6 15.7a.25.25 0 00.4-.2v-3.25a.25.25 0 00-.25-.25h-3.5a.25.25 0 00-.25.25z"></path></g></g>
  <text x="55" y="143" class="label">Public Repos: <tspan class="value">6</tspan></text>

  <g transform="translate(30, 165)"><g class="icon" transform="scale(0.9)"><path fill-rule="evenodd" d="M1.5 8a6.5 6.5 0 1113 0 6.5 6.5 0 01-13 0zM8 0a8 8 0 100 16A8 8 0 008 0zm.5 4.75a.75.75 0 00-1.5 0v3.5a.75.75 0 00.471.696l2.5 1a.75.75 0 00.557-1.392L8.5 7.742V4.75z"></path></g></g>
  <text x="55" y="178" class="label">Joined GitHub: <tspan class="value">2 years ago</tspan></text>

  <g transform="translate(30, 200)"><g class="icon" transform="scale(0.9)"><path d="M2.5 1.75A.75.75 0 013.25 1h9.5a.75.75 0 01.75.75v12.5a.75.75 0 01-.75.75H3.25a.75.75 0 01-.75-.75V1.75zM3.5 2v11.5h9V2h-9zM5 4h5v1H5V4zm0 2h5v1H5V6zm0 2h5v1H5V8zm0 2h5v1H5v-1z"></path></g></g>
  <text x="55" y="213" class="label">Studying At: <tspan class="value">Amrita Vishwa Vidyapeetham</tspan></text>
  
  <text x="605" y="45" class="axis-label" text-anchor="middle" fill="#fafafa">CONTRIBUTIONS ACTIVITY</text>
  
  <path d="M 380,180 L 380.0,176.09756097560975 L 388.65384615384613,167.3170731707317 L 397.3076923076923,180.0 L 405.96153846153845,180.0 L 414.61538461538464,179.02439024390245 L 423.2692307692308,179.02439024390245 L 431.9230769230769,180.0 L 440.5769230769231,164.390243902439 L 449.2307692307692,179.02439024390245 L 457.88461538461536,178.0487804878049 L 466.53846153846155,180.0 L 475.1923076923077,180.0 L 483.84615384615387,179.02439024390245 L 492.5,180.0 L 501.15384615384613,180.0 L 509.80769230769226,177.0731707317073 L 518.4615384615385,173.17073170731706 L 527.1153846153846,164.390243902439 L 535.7692307692307,175.1219512195122 L 544.4230769230769,173.17073170731706 L 553.0769230769231,179.02439024390245 L 561.7307692307693,174.14634146341464 L 570.3846153846154,176.09756097560975 L 579.0384615384615,180.0 L 587.6923076923077,180.0 L 596.3461538461538,177.0731707317073 L 605.0,178.0487804878049 L 613.6538461538462,159.5121951219512 L 622.3076923076923,179.02439024390245 L 630.9615384615385,169.26829268292684 L 639.6153846153845,180.0 L 648.2692307692307,175.1219512195122 L 656.9230769230769,177.0731707317073 L 665.5769230769231,178.0487804878049 L 674.2307692307693,157.5609756097561 L 682.8846153846155,160.4878048780488 L 691.5384615384615,160.4878048780488 L 700.1923076923076,148.78048780487805 L 708.8461538461538,177.0731707317073 L 717.5,160.4878048780488 L 726.1538461538462,136.09756097560975 L 734.8076923076924,112.6829268292683 L 743.4615384615385,163.41463414634146 L 752.1153846153845,142.9268292682927 L 760.7692307692307,136.09756097560975 L 769.4230769230769,132.1951219512195 L 778.0769230769231,157.5609756097561 L 786.7307692307693,132.1951219512195 L 795.3846153846155,100.0 L 804.0384615384615,151.70731707317074 L 812.6923076923076,148.78048780487805 L 821.3461538461538,157.5609756097561 L 830.0,172.1951219512195 L 830,180 Z" class="chart-fill"/>
  <line x1="380" y1="180" x2="830" y2="180" class="axis" />
  
  <line x1="830" y1="180" x2="830" y2="100" class="axis" />
  <text x="840" y="180" class="axis-label" fill="#666666">0</text>
  <text x="840" y="140.0" class="axis-label" fill="#666666">41</text>
  <text x="840" y="100" class="axis-label" fill="#666666">82</text>
</svg>