<svg width="900" height="250" viewBox="0 0 900 250" xmlns="http://www.w3.org/2000/svg">
  <style>
      .title { font-family: -apple-system, sans-serif; fill: #58a6ff; font-size: 24px; font-weight: 500; }
      .label { font-family: -apple-system, sans-serif; fill: #8b949e; font-size: 16px; }
      .bg { fill: #0d1117; stroke: #30363d; stroke-width: 1; }
      .chart-fill { fill: #3fb950; opacity: 0.8; }
      .axis { stroke: #30363d; stroke-width: 1; }
      .axis-label { font-family: -apple-system, sans-serif; fill: #8b949e; font-size: 14px; font-weight: 500; }
      .icon { fill: #8b949e; }
  </style>
  <rect width="900" height="250" class="bg" rx="6" />
  
  <text x="30" y="50" class="title">BIJJUDAMA (Nitansh Shankar)</text>
  
  <g transform="translate(30, 95)"><g class="icon"><path fill-rule="evenodd" d="M8 1.5a6.5 6.5 0 100 13 6.5 6.5 0 000-13zM0 8a8 8 0 1116 0A8 8 0 010 8zm11.646-2.854a.5.5 0 00-.707 0L8 8.086 5.854 5.94a.5.5 0 00-.708 0l-2 2a.5.5 0 10.708.708L5.5 6.992l2.146 2.147a.5.5 0 00.708 0l3.5-3.5a.5.5 0 000-.707z"></path></g></g>
  <text x="55" y="108" class="label">779 contributions in the last year</text>

  <g transform="translate(30, 130)"><g class="icon"><path fill-rule="evenodd" d="M2 2.5A2.5 2.5 0 014.5 0h8.75a.75.75 0 01.75.75v12.5a.75.75 0 01-.75.75h-2.5a.75.75 0 110-1.5h1.75v-2h-8a1 1 0 00-.714 1.7.75.75 0 01-1.072 1.05A2.495 2.495 0 012 11.5v-9zm10.5-1V9h-8c-.356 0-.694.074-1 .208V2.5a1 1 0 011-1h8zM5 12.25v3.25a.25.25 0 00.4.2l1.45-1.087a.25.25 0 01.3 0L8.6 15.7a.25.25 0 00.4-.2v-3.25a.25.25 0 00-.25-.25h-3.5a.25.25 0 00-.25.25z"></path></g></g>
  <text x="55" y="143" class="label">6 Public Repos</text>

  <g transform="translate(30, 165)"><g class="icon"><path fill-rule="evenodd" d="M1.5 8a6.5 6.5 0 1113 0 6.5 6.5 0 01-13 0zM8 0a8 8 0 100 16A8 8 0 008 0zm.5 4.75a.75.75 0 00-1.5 0v3.5a.75.75 0 00.471.696l2.5 1a.75.75 0 00.557-1.392L8.5 7.742V4.75z"></path></g></g>
  <text x="55" y="178" class="label">Joined GitHub 2 years ago</text>

  <g transform="translate(30, 200)"><g class="icon"><path d="M2.5 1.75A.75.75 0 013.25 1h9.5a.75.75 0 01.75.75v12.5a.75.75 0 01-.75.75H3.25a.75.75 0 01-.75-.75V1.75zM3.5 2v11.5h9V2h-9zM5 4h5v1H5V4zm0 2h5v1H5V6zm0 2h5v1H5V8zm0 2h5v1H5v-1z"></path></g></g>
  <text x="55" y="213" class="label">Amrita Vishwa Vidyapeetham</text>
  
  <text x="605" y="55" class="axis-label" text-anchor="middle">Contributions in the Last Year</text>
  
  <path d="M 380,180 L 380.0,180.0 L 388.65384615384613,100.0 L 397.3076923076923,169.1358024691358 L 405.96153846153845,176.0493827160494 L 414.61538461538464,167.1604938271605 L 423.2692307692308,180.0 L 431.9230769230769,180.0 L 440.5769230769231,179.01234567901236 L 449.2307692307692,179.01234567901236 L 457.88461538461536,180.0 L 466.53846153846155,164.19753086419752 L 475.1923076923077,179.01234567901236 L 483.84615384615387,178.02469135802468 L 492.5,180.0 L 501.15384615384613,180.0 L 509.80769230769226,179.01234567901236 L 518.4615384615385,180.0 L 527.1153846153846,180.0 L 535.7692307692307,177.03703703703704 L 544.4230769230769,173.08641975308643 L 553.0769230769231,164.19753086419752 L 561.7307692307693,175.06172839506172 L 570.3846153846154,173.08641975308643 L 579.0384615384615,179.01234567901236 L 587.6923076923077,174.07407407407408 L 596.3461538461538,176.0493827160494 L 605.0,180.0 L 613.6538461538462,180.0 L 622.3076923076923,177.03703703703704 L 630.9615384615385,178.02469135802468 L 639.6153846153845,159.25925925925927 L 648.2692307692307,179.01234567901236 L 656.9230769230769,169.1358024691358 L 665.5769230769231,180.0 L 674.2307692307693,175.06172839506172 L 682.8846153846155,177.03703703703704 L 691.5384615384615,178.02469135802468 L 700.1923076923076,157.28395061728395 L 708.8461538461538,160.2469135802469 L 717.5,160.2469135802469 L 726.1538461538462,148.39506172839506 L 734.8076923076924,177.03703703703704 L 743.4615384615385,160.2469135802469 L 752.1153846153845,135.55555555555554 L 760.7692307692307,111.85185185185185 L 769.4230769230769,163.20987654320987 L 778.0769230769231,142.46913580246914 L 786.7307692307693,135.55555555555554 L 795.3846153846155,131.60493827160494 L 804.0384615384615,157.28395061728395 L 812.6923076923076,131.60493827160494 L 821.3461538461538,100.0 L 830.0,163.20987654320987 L 830,180 Z" class="chart-fill"/>
  <line x1="380" y1="180" x2="830" y2="180" class="axis" />
  
  <line x1="830" y1="180" x2="830" y2="100" class="axis" />
  <text x="840" y="180" class="axis-label" fill="#8b949e">0</text>
  <text x="840" y="140.0" class="axis-label" fill="#8b949e">40</text>
  <text x="840" y="100" class="axis-label" fill="#8b949e">81</text>
</svg>