<svg width="300" height="150" viewBox="0 0 300 150" xmlns="http://www.w3.org/2000/svg">
  <style>
      .title { font-family: -apple-system, sans-serif; fill: #58a6ff; font-size: 14px; font-weight: 600; }
      .label { font-family: -apple-system, sans-serif; fill: #8b949e; font-size: 13px; }
      .value { font-family: -apple-system, sans-serif; fill: #c9d1d9; font-size: 13px; font-weight: 600; }
      .bg { fill: #0d1117; stroke: #30363d; stroke-width: 1; }
      .icon { fill: #58a6ff; }
  </style>
  <rect width="300" height="150" class="bg" rx="6" />
  <text x="25" y="25" class="title">Stats</text>
  
  <g transform="translate(25, 45)"><g class="icon"><path fill-rule="evenodd" d="M8 .25a.75.75 0 01.673.418l1.882 3.815 4.21.612a.75.75 0 01.416 1.279l-3.046 2.97.719 4.192a.75.75 0 01-1.088.791L8 12.347l-3.766 1.98a.75.75 0 01-1.088-.79l.72-4.194L.818 6.374a.75.75 0 01.416-1.28l4.21-.611L7.327.668A.75.75 0 018 .25z"></path></g></g>
  <text x="50" y="56" class="label">Total Stars: </text><text x="175" y="56" class="value">2</text>

  <g transform="translate(25, 65)"><g class="icon"><path fill-rule="evenodd" d="M10.5 7.75a2.5 2.5 0 11-5 0 2.5 2.5 0 015 0zm1.43.75a4.002 4.002 0 01-7.86 0H.75a.75.75 0 110-1.5h3.32a4.001 4.001 0 017.86 0h3.32a.75.75 0 110 1.5h-3.32z"></path></g></g>
  <text x="50" y="76" class="label">Commits (Last Year): </text><text x="180" y="76" class="value">800</text>

  <g transform="translate(25, 85)"><g class="icon"><path fill-rule="evenodd" d="M7.177 3.073L9.573.677A.25.25 0 0110 .854v4.792a.25.25 0 01-.427.177L7.177 3.427a.25.25 0 010-.354zM3.75 2.5a.75.75 0 100 1.5.75.75 0 000-1.5zm-2.25.75a2.25 2.25 0 113 2.122v5.256a2.251 2.251 0 11-1.5 0V5.372A2.25 2.25 0 011.5 3.25zM11 2.5h-1V4h1a1 1 0 011 1v5.628a2.251 2.251 0 101.5 0V5A2.5 2.5 0 0011 2.5zm1 10.25a.75.75 0 111.5 0 .75.75 0 01-1.5 0zM3.75 12a.75.75 0 100 1.5.75.75 0 000-1.5z"></path></g></g>
  <text x="50" y="96" class="label">Total PRs: </text><text x="180" y="96" class="value">14</text>

  <g transform="translate(25, 105)"><g class="icon"><path d="M8 9.5a1.5 1.5 0 100-3 1.5 1.5 0 000 3z"></path><path fill-rule="evenodd" d="M8 0a8 8 0 100 16A8 8 0 008 0zM1.5 8a6.5 6.5 0 1113 0 6.5 6.5 0 01-13 0z"></path></g></g>
  <text x="50" y="116" class="label">Total Issues: </text><text x="180" y="116" class="value">14</text>

  <g transform="translate(25, 125)"><g class="icon"><path fill-rule="evenodd" d="M2 2.5A2.5 2.5 0 014.5 0h8.75a.75.75 0 01.75.75v12.5a.75.75 0 01-.75.75h-2.5a.75.75 0 110-1.5h1.75v-2h-8a1 1 0 00-.714 1.7.75.75 0 01-1.072 1.05A2.495 2.495 0 012 11.5v-9zm10.5-1V9h-8c-.356 0-.694.074-1 .208V2.5a1 1 0 011-1h8zM5 12.25v3.25a.25.25 0 00.4.2l1.45-1.087a.25.25 0 01.3 0L8.6 15.7a.25.25 0 00.4-.2v-3.25a.25.25 0 00-.25-.25h-3.5a.25.25 0 00-.25.25z"></path></g></g>
  <text x="50" y="136" class="label">Contributed to: </text><text x="180" y="136" class="value">5</text>
  
  <!-- GitHub Logo Silhouette -->
  <g transform="translate(45, 0)">
    <path d="M220 50 C200 50 185 65 185 85 C185 100 195 112 208 117 C210 117 211 116 211 114 C211 113 211 110 211 106 C201 108 199 101 199 101 C197 97 194 95 194 95 C190 92 194 92 194 92 C198 93 201 96 201 96 C204 102 210 101 213 100 C213 97 214 96 215 95 C206 94 196 90 196 75 C196 71 198 68 200 65 C200 64 198 60 201 55 C201 55 204 54 211 59 C214 58 217 58 220 58 C223 58 226 58 229 59 C236 54 240 55 240 55 C242 60 240 64 240 65 C242 68 244 71 244 75 C244 90 234 94 225 95 C227 96 228 99 228 103 C228 108 228 113 228 114 C228 116 229 117 232 117 C245 113 255 100 255 85 C255 65 240 50 220 50 Z" fill="#24292e" opacity="0.8"/>
  </g>
</svg>