<svg width="308" height="158" viewBox="0 0 308 158" xmlns="http://www.w3.org/2000/svg">
  <style>
      @import url('https://fonts.googleapis.com/css2?family=Space+Grotesk:wght@500;700&amp;family=JetBrains+Mono:wght@400;600&amp;display=swap');
      .title { font-family: 'Space Grotesk', sans-serif; fill: #fafafa; font-size: 15px; font-weight: 700; letter-spacing: 0.05em; }
      .label { font-family: 'JetBrains Mono', sans-serif; fill: #666666; font-size: 11px; }
      .value { font-family: 'JetBrains Mono', sans-serif; fill: #fafafa; font-size: 11px; font-weight: 600; }
      .bg { fill: #141414; stroke: #333333; stroke-width: 2; }
      .shadow { fill: #000000; }
      .icon { fill: #ff0000; }
  </style>
  <rect x="8" y="8" width="300" height="150" class="shadow" />
  <rect width="300" height="150" class="bg" />
  
  <text x="25" y="30" class="title">STATS</text>
  <line x1="25" y1="36" x2="80" y2="36" stroke="#ff0000" stroke-width="2" />
  
  <g transform="translate(25, 48)"><g class="icon" transform="scale(0.8)"><path fill-rule="evenodd" d="M8 .25a.75.75 0 01.673.418l1.882 3.815 4.21.612a.75.75 0 01.416 1.279l-3.046 2.97.719 4.192a.75.75 0 01-1.088.791L8 12.347l-3.766 1.98a.75.75 0 01-1.088-.79l.72-4.194L.818 6.374a.75.75 0 01.416-1.28l4.21-.611L7.327.668A.75.75 0 018 .25z"></path></g></g>
  <text x="45" y="60" class="label">Stars: </text><text x="160" y="60" class="value">2</text>

  <g transform="translate(25, 68)"><g class="icon" transform="scale(0.8)"><path fill-rule="evenodd" d="M10.5 7.75a2.5 2.5 0 11-5 0 2.5 2.5 0 015 0zm1.43.75a4.002 4.002 0 01-7.86 0H.75a.75.75 0 110-1.5h3.32a4.001 4.001 0 017.86 0h3.32a.75.75 0 110 1.5h-3.32z"></path></g></g>
  <text x="45" y="80" class="label">Commits: </text><text x="160" y="80" class="value">736</text>

  <g transform="translate(25, 88)"><g class="icon" transform="scale(0.8)"><path fill-rule="evenodd" d="M7.177 3.073L9.573.677A.25.25 0 0110 .854v4.792a.25.25 0 01-.427.177L7.177 3.427a.25.25 0 010-.354zM3.75 2.5a.75.75 0 100 1.5.75.75 0 000-1.5zm-2.25.75a2.25 2.25 0 113 2.122v5.256a2.251 2.251 0 11-1.5 0V5.372A2.25 2.25 0 011.5 3.25zM11 2.5h-1V4h1a1 1 0 011 1v5.628a2.251 2.251 0 101.5 0V5A2.5 2.5 0 0011 2.5zm1 10.25a.75.75 0 111.5 0 .75.75 0 01-1.5 0zM3.75 12a.75.75 0 100 1.5.75.75 0 000-1.5z"></path></g></g>
  <text x="45" y="100" class="label">PRs: </text><text x="160" y="100" class="value">14</text>

  <g transform="translate(25, 108)"><g class="icon" transform="scale(0.8)"><path d="M8 9.5a1.5 1.5 0 100-3 1.5 1.5 0 000 3z"></path><path fill-rule="evenodd" d="M8 0a8 8 0 100 16A8 8 0 008 0zM1.5 8a6.5 6.5 0 1113 0 6.5 6.5 0 01-13 0z"></path></g></g>
  <text x="45" y="120" class="label">Issues: </text><text x="160" y="120" class="value">14</text>

  <g transform="translate(25, 128)"><g class="icon" transform="scale(0.8)"><path fill-rule="evenodd" d="M2 2.5A2.5 2.5 0 014.5 0h8.75a.75.75 0 01.75.75v12.5a.75.75 0 01-.75.75h-2.5a.75.75 0 110-1.5h1.75v-2h-8a1 1 0 00-.714 1.7.75.75 0 01-1.072 1.05A2.495 2.495 0 012 11.5v-9zm10.5-1V9h-8c-.356 0-.694.074-1 .208V2.5a1 1 0 011-1h8zM5 12.25v3.25a.25.25 0 00.4.2l1.45-1.087a.25.25 0 01.3 0L8.6 15.7a.25.25 0 00.4-.2v-3.25a.25.25 0 00-.25-.25h-3.5a.25.25 0 00-.25.25z"></path></g></g>
  <text x="45" y="140" class="label">Contributed: </text><text x="160" y="140" class="value">5</text>
</svg>