<svg width="380" height="178" viewBox="0 0 380 178" xmlns="http://www.w3.org/2000/svg">
    <style>
        @import url('https://fonts.googleapis.com/css2?family=Space+Grotesk:wght@500;700&amp;family=JetBrains+Mono:wght@400;600&amp;display=swap');
        .title { font-family: 'Space Grotesk', system-ui; fill: #fafafa; font-size: 16px; font-weight: 700; letter-spacing: 0.05em; }
        .label { font-family: 'JetBrains Mono', monospace; fill: #aaaaaa; font-size: 12px; }
        .value { font-family: 'JetBrains Mono', monospace; fill: #fafafa; font-size: 12px; font-weight: 600; }
        .bg { fill: #141414; stroke: #333333; stroke-width: 2; }
        .shadow { fill: #000000; }
    </style>
    <!-- Brutalist Shadow -->
    <rect x="8" y="8" width="372" height="170" class="shadow" />
    <!-- Foreground Background -->
    <rect width="372" height="170" class="bg" />
    
    <text x="30" y="35" class="title" fill="#fafafa">TOP LANGUAGES BY REPO</text>
    <line x1="30" y1="42" x2="160" y2="42" stroke="#ff0000" stroke-width="2" />
    <path d="M 280.0 52.0 A 48 48 0 0 1 316.10510136288707 131.62944285907753" fill="none" stroke="#3178c6" stroke-width="14" />
        <rect x="25" y="62" width="8" height="8" fill="#3178c6" />
        <text x="40" y="70" class="label">TypeScript <tspan fill="#fafafa" class="value">36.4%</tspan></text>
        <path d="M 316.10510136288707 131.62944285907753 A 48 48 0 0 1 248.34776128241765 136.08511859707795" fill="none" stroke="#3572A5" stroke-width="14" />
        <rect x="25" y="78" width="8" height="8" fill="#3572A5" />
        <text x="40" y="86" class="label">Python <tspan fill="#fafafa" class="value">25.0%</tspan></text>
        <path d="M 248.34776128241765 136.08511859707795 A 48 48 0 0 1 233.60876043696368 87.67713946338046" fill="none" stroke="#00ADD8" stroke-width="14" />
        <rect x="25" y="94" width="8" height="8" fill="#00ADD8" />
        <text x="40" y="102" class="label">Go <tspan fill="#fafafa" class="value">17.7%</tspan></text>
        <path d="M 233.60876043696368 87.67713946338046 A 48 48 0 0 1 253.67666208042866 59.86171552280719" fill="none" stroke="#ff5a03" stroke-width="14" />
        <rect x="25" y="110" width="8" height="8" fill="#ff5a03" />
        <text x="40" y="118" class="label">Astro <tspan fill="#fafafa" class="value">11.6%</tspan></text>
        <path d="M 253.67666208042866 59.86171552280719 A 48 48 0 0 1 280.00000000000006 52.0" fill="none" stroke="#f1e05a" stroke-width="14" />
        <rect x="25" y="126" width="8" height="8" fill="#f1e05a" />
        <text x="40" y="134" class="label">JavaScript <tspan fill="#fafafa" class="value">9.2%</tspan></text>
        </svg>