<svg width="308" height="158" viewBox="0 0 308 158" xmlns="http://www.w3.org/2000/svg">
    <style>
        @import url('https://fonts.googleapis.com/css2?family=Space+Grotesk:wght@500;700&amp;family=JetBrains+Mono:wght@400;600&amp;display=swap');
        .title { font-family: 'Space Grotesk', system-ui; fill: #fafafa; font-size: 15px; font-weight: 700; letter-spacing: 0.05em; }
        .label { font-family: 'JetBrains Mono', monospace; fill: #666666; font-size: 11px; }
        .value { font-family: 'JetBrains Mono', monospace; fill: #fafafa; font-size: 11px; font-weight: 600; }
        .bg { fill: #141414; stroke: #333333; stroke-width: 2; }
        .shadow { fill: #000000; }
    </style>
    <!-- Brutalist Shadow -->
    <rect x="8" y="8" width="300" height="150" class="shadow" />
    <!-- Foreground Background -->
    <rect width="300" height="150" class="bg" />
    
    <text x="25" y="30" class="title">TOP LANGUAGES BY REPO</text>
    <line x1="25" y1="36" x2="140" y2="36" stroke="#ff0000" stroke-width="2" />
    <path d="M 210.0 45.0 A 40 40 0 0 1 230.4911067434786 119.35279529277588" fill="none" stroke="#f1e05a" stroke-width="12" />
        <rect x="25" y="50" width="8" height="8" fill="#f1e05a" />
        <text x="40" y="58" class="label">JavaScript <tspan fill="#fafafa" class="value">41.4%</tspan></text>
        <path d="M 230.4911067434786 119.35279529277588 A 40 40 0 0 1 172.96943792693642 100.12406931196051" fill="none" stroke="#3572A5" stroke-width="12" />
        <rect x="25" y="66" width="8" height="8" fill="#3572A5" />
        <text x="40" y="74" class="label">Python <tspan fill="#fafafa" class="value">27.4%</tspan></text>
        <path d="M 172.96943792693642 100.12406931196051 A 40 40 0 0 1 185.0055935841852 53.770532378519874" fill="none" stroke="#3178c6" stroke-width="12" />
        <rect x="25" y="82" width="8" height="8" fill="#3178c6" />
        <text x="40" y="90" class="label">TypeScript <tspan fill="#fafafa" class="value">20.4%</tspan></text>
        <path d="M 185.0055935841852 53.770532378519874 A 40 40 0 0 1 197.8745190854202 46.88212082775117" fill="none" stroke="#012456" stroke-width="12" />
        <rect x="25" y="98" width="8" height="8" fill="#012456" />
        <text x="40" y="106" class="label">PowerShell <tspan fill="#fafafa" class="value">5.8%</tspan></text>
        <path d="M 197.8745190854202 46.88212082775117 A 40 40 0 0 1 209.99999999999994 45.0" fill="none" stroke="#89e051" stroke-width="12" />
        <rect x="25" y="114" width="8" height="8" fill="#89e051" />
        <text x="40" y="122" class="label">Shell <tspan fill="#fafafa" class="value">4.9%</tspan></text>
        </svg>