<svg width="300" height="150" viewBox="0 0 300 150" xmlns="http://www.w3.org/2000/svg">
    <style>
        .title { font-family: -apple-system, BlinkMacSystemFont, "Segoe UI", Roboto, sans-serif; fill: #58a6ff; font-size: 14px; font-weight: 600; }
        .label { font-family: -apple-system, BlinkMacSystemFont, "Segoe UI", Roboto, sans-serif; fill: #c9d1d9; font-size: 12px; }
        .bg { fill: #0d1117; stroke: #30363d; stroke-width: 1; }
    </style>
    <rect width="300" height="150" class="bg" rx="6" />
    <text x="25" y="25" class="title">Top Languages by Repo</text>
    <path d="M 220.0 45.0 A 40 40 0 0 1 240.4911067434786 119.35279529277588" fill="none" stroke="#f1e05a" stroke-width="15" />
        <rect x="25" y="42" width="8" height="8" fill="#f1e05a" />
        <text x="40" y="50" class="label">JavaScript 41.4%</text>
        <path d="M 240.4911067434786 119.35279529277588 A 40 40 0 0 1 182.96943792693642 100.12406931196051" fill="none" stroke="#3572A5" stroke-width="15" />
        <rect x="25" y="58" width="8" height="8" fill="#3572A5" />
        <text x="40" y="66" class="label">Python 27.4%</text>
        <path d="M 182.96943792693642 100.12406931196051 A 40 40 0 0 1 195.0055935841852 53.770532378519874" fill="none" stroke="#3178c6" stroke-width="15" />
        <rect x="25" y="74" width="8" height="8" fill="#3178c6" />
        <text x="40" y="82" class="label">TypeScript 20.4%</text>
        <path d="M 195.0055935841852 53.770532378519874 A 40 40 0 0 1 207.8745190854202 46.88212082775117" fill="none" stroke="#012456" stroke-width="15" />
        <rect x="25" y="90" width="8" height="8" fill="#012456" />
        <text x="40" y="98" class="label">PowerShell 5.8%</text>
        <path d="M 207.8745190854202 46.88212082775117 A 40 40 0 0 1 219.99999999999994 45.0" fill="none" stroke="#89e051" stroke-width="15" />
        <rect x="25" y="106" width="8" height="8" fill="#89e051" />
        <text x="40" y="114" class="label">Shell 4.9%</text>
        </svg>