<svg width="300" height="150" viewBox="0 0 300 150" xmlns="http://www.w3.org/2000/svg">
    <style>
        .title { font-family: -apple-system, BlinkMacSystemFont, "Segoe UI", Roboto, sans-serif; fill: #58a6ff; font-size: 14px; font-weight: 600; }
        .label { font-family: -apple-system, BlinkMacSystemFont, "Segoe UI", Roboto, sans-serif; fill: #c9d1d9; font-size: 12px; }
        .bg { fill: #0d1117; stroke: #30363d; stroke-width: 1; }
    </style>
    <rect width="300" height="150" class="bg" rx="6" />
    <text x="25" y="25" class="title">Top Languages by Commit</text>
    <path d="M 220.0 45.0 A 40 40 0 1 1 218.16593734533805 124.95793055425636" fill="none" stroke="#f1e05a" stroke-width="15" />
        <rect x="25" y="42" width="8" height="8" fill="#f1e05a" />
        <text x="40" y="50" class="label">JavaScript 50.7%</text>
        <path d="M 218.16593734533805 124.95793055425636 A 40 40 0 0 1 180.76532263983353 77.21282513079095" fill="none" stroke="#3572A5" stroke-width="15" />
        <rect x="25" y="58" width="8" height="8" fill="#3572A5" />
        <text x="40" y="66" class="label">Python 27.4%</text>
        <path d="M 180.76532263983353 77.21282513079095 A 40 40 0 0 1 190.17108432878746 58.349750660084055" fill="none" stroke="#012456" stroke-width="15" />
        <rect x="25" y="74" width="8" height="8" fill="#012456" />
        <text x="40" y="82" class="label">PowerShell 8.5%</text>
        <path d="M 190.17108432878746 58.349750660084055 A 40 40 0 0 1 204.78299992718706 48.007529025705644" fill="none" stroke="#89e051" stroke-width="15" />
        <rect x="25" y="90" width="8" height="8" fill="#89e051" />
        <text x="40" y="98" class="label">Shell 7.2%</text>
        <path d="M 204.78299992718706 48.007529025705644 A 40 40 0 0 1 220.0 45.0" fill="none" stroke="#3178c6" stroke-width="15" />
        <rect x="25" y="106" width="8" height="8" fill="#3178c6" />
        <text x="40" y="114" class="label">TypeScript 6.2%</text>
        </svg>