<svg width="600" height="225" viewBox="0 0 600 225" xmlns="http://www.w3.org/2000/svg">
  <defs>
    <style>
      @import url('https://fonts.googleapis.com/css2?family=Fira+Code:wght@400;500;600&amp;display=swap');
      .lang-text { font-family: 'Fira Code', monospace; font-size: 13px; font-weight: 500; }
      .badge-text { fill: #000000; text-anchor: middle; font-weight: 600; text-transform: uppercase; }
      .pct-text { fill: #ffffff; text-anchor: end; }
      .bar-bg { fill: rgba(255, 255, 255, 0.08); }
      
      @media (prefers-color-scheme: light) {
        .pct-text { fill: #000000; }
        .bar-bg { fill: rgba(0, 0, 0, 0.08); }
      }
    </style>
  </defs>

  <!-- Badge -->
  <rect x="0" y="5" width="120" height="28" fill="#f1e05a" />
  <text x="60" y="24" class="lang-text badge-text">JavaScript</text>
  
  <!-- Bar track -->
  <rect x="135" y="8" width="350" height="22" class="bar-bg" />
  <!-- Bar fill -->
  <rect x="135" y="8" width="140.90383147246874" height="22" fill="#f1e05a" />
  
  <!-- Percentage -->
  <text x="580" y="24" class="lang-text pct-text">40.3%</text>

  <!-- Badge -->
  <rect x="0" y="50" width="120" height="28" fill="#3572A5" />
  <text x="60" y="69" class="lang-text badge-text">Python</text>
  
  <!-- Bar track -->
  <rect x="135" y="53" width="350" height="22" class="bar-bg" />
  <!-- Bar fill -->
  <rect x="135" y="53" width="93.12672964977574" height="22" fill="#3572A5" />
  
  <!-- Percentage -->
  <text x="580" y="69" class="lang-text pct-text">26.6%</text>

  <!-- Badge -->
  <rect x="0" y="95" width="120" height="28" fill="#3178c6" />
  <text x="60" y="114" class="lang-text badge-text">TypeScript</text>
  
  <!-- Bar track -->
  <rect x="135" y="98" width="350" height="22" class="bar-bg" />
  <!-- Bar fill -->
  <rect x="135" y="98" width="69.46213856283997" height="22" fill="#3178c6" />
  
  <!-- Percentage -->
  <text x="580" y="114" class="lang-text pct-text">19.8%</text>

  <!-- Badge -->
  <rect x="0" y="140" width="120" height="28" fill="#012456" />
  <text x="60" y="159" class="lang-text badge-text">PowerShell</text>
  
  <!-- Bar track -->
  <rect x="135" y="143" width="350" height="22" class="bar-bg" />
  <!-- Bar fill -->
  <rect x="135" y="143" width="19.85876514934631" height="22" fill="#012456" />
  
  <!-- Percentage -->
  <text x="580" y="159" class="lang-text pct-text">5.7%</text>

  <!-- Badge -->
  <rect x="0" y="185" width="120" height="28" fill="#89e051" />
  <text x="60" y="204" class="lang-text badge-text">Shell</text>
  
  <!-- Bar track -->
  <rect x="135" y="188" width="350" height="22" class="bar-bg" />
  <!-- Bar fill -->
  <rect x="135" y="188" width="16.666666666666664" height="22" fill="#89e051" />
  
  <!-- Percentage -->
  <text x="580" y="204" class="lang-text pct-text">4.8%</text>
</svg>